<?xml version="1.0" encoding="UTF-8"?>
<svg version="1.1" xmlns="http://www.w3.org/2000/svg" width="512" height="512">
<path d="M0 0 C0.83676773 -0.00524185 1.67353546 -0.0104837 2.53565979 -0.0158844 C4.29630428 -0.02227592 6.05699164 -0.021005 7.81762695 -0.01245117 C10.49313295 -0.00394052 13.16650119 -0.03274191 15.84179688 -0.06445312 C17.56119728 -0.06606555 19.28060143 -0.06548681 21 -0.0625 C22.18474159 -0.07935097 22.18474159 -0.07935097 23.39341736 -0.09654236 C28.93379014 -0.02793994 33.72468626 0.78418196 38.06640625 4.43359375 C42.31023001 10.52000372 44.4687491 17.93552477 46.765625 24.9296875 C47.08674759 25.88504898 47.40787018 26.84041046 47.73872375 27.82472229 C48.75073556 30.83790706 49.75309683 33.85417151 50.75390625 36.87109375 C51.76647062 39.912636 52.78119351 42.95339994 53.80122375 45.9924469 C54.43243587 47.8739989 55.0592311 49.75703983 55.68107605 51.64170837 C55.96509781 52.49011795 56.24911957 53.33852753 56.54174805 54.21264648 C56.78869919 54.95747787 57.03565033 55.70230927 57.29008484 56.4697113 C58.092086 58.69959232 58.092086 58.69959232 60.06640625 61.43359375 C61.4266257 57.2688795 62.77929969 53.10175904 64.12890625 48.93359375 C64.33204437 48.30733093 64.5351825 47.68106812 64.74447632 47.03582764 C67.95761063 37.11295474 70.96966153 27.14990828 73.68188477 17.07617188 C75.11795834 11.93132916 76.45086776 7.50975058 80.06640625 3.43359375 C85.56362192 0.51174881 90.05424225 -0.02223939 96.21875 0 C97.07771378 -0.00524185 97.93667755 -0.0104837 98.82167053 -0.0158844 C100.62939376 -0.02227726 102.43715874 -0.02100324 104.24487305 -0.01245117 C106.99278678 -0.00394069 109.73861918 -0.03274028 112.48632812 -0.06445312 C114.25130147 -0.06606554 116.01627845 -0.06548684 117.78125 -0.0625 C118.59295151 -0.07373398 119.40465302 -0.08496796 120.24095154 -0.09654236 C125.7909413 -0.02959015 130.55481017 1.021398 135.06640625 4.43359375 C136.03186686 7.32997558 136.30255329 9.51867491 136.49609375 12.546875 C136.56779785 13.6608667 136.63950195 14.7748584 136.71337891 15.92260742 C136.82625244 17.81523315 136.82625244 17.81523315 136.94140625 19.74609375 C137.00143829 20.73991562 137.00143829 20.73991562 137.06268311 21.7538147 C137.41652152 27.64601958 137.7431978 33.53963991 138.06640625 39.43359375 C138.12803955 40.55084839 138.18967285 41.66810303 138.25317383 42.81921387 C140.00306602 74.68516069 141.69640499 106.5071959 141.06640625 138.43359375 C132.11103047 143.08360466 122.95911772 142.63185557 113.06640625 142.18359375 C112.34864014 142.15749023 111.63087402 142.13138672 110.89135742 142.10449219 C106.53564736 141.84414383 103.5077337 141.17101331 100.06640625 138.43359375 C99.00407802 135.24660905 98.7994033 132.65172497 98.6015625 129.30078125 C98.52357422 128.01558594 98.44558594 126.73039062 98.36523438 125.40625 C98.28632779 124.04037212 98.20755056 122.67448676 98.12890625 121.30859375 C98.01481671 119.40577868 97.90072204 117.50296392 97.78646851 115.60015869 C97.65722576 113.43631734 97.52998876 111.27236335 97.40283203 109.10839844 C96.94470175 101.34383258 96.47115406 93.58019038 96 85.81640625 C95.90788204 84.29792281 95.81576472 82.77943933 95.72364807 81.26095581 C95.50467247 77.65182875 95.28557509 74.04270909 95.06640625 70.43359375 C94.82250656 71.25156433 94.57860687 72.06953491 94.32731628 72.91229248 C92.02603723 80.62478845 89.71686277 88.33486618 87.3988142 96.04233932 C86.20739374 100.00480138 85.01903384 103.96812771 83.83764648 107.93359375 C82.69718579 111.76127335 81.54871507 115.58646495 80.39467812 119.41007233 C79.95605337 120.86842558 79.5203096 122.32764857 79.08751488 123.78774261 C78.48028116 125.83451316 77.86282711 127.87793648 77.24291992 129.92089844 C76.89428391 131.0844989 76.54564789 132.24809937 76.18644714 133.44696045 C75.11919747 136.29282389 74.1489794 138.23305782 72.06640625 140.43359375 C69.33911133 140.88769531 69.33911133 140.88769531 66.0859375 140.82421875 C64.92255859 140.81132812 63.75917969 140.7984375 62.56054688 140.78515625 C60.73813477 140.73488281 60.73813477 140.73488281 58.87890625 140.68359375 C57.65236328 140.66554688 56.42582031 140.6475 55.16210938 140.62890625 C52.12942866 140.58170499 49.09830538 140.51587052 46.06640625 140.43359375 C41.19633231 129.00303379 37.4826582 117.41219251 34.00390625 105.49609375 C33.24396317 102.91666455 32.48196756 100.33784866 31.71963501 97.75912476 C31.22351823 96.08067529 30.72820296 94.40198867 30.23373413 92.72305298 C27.93381759 84.93166659 25.51891758 77.17811711 23.06640625 69.43359375 C23.03548386 70.33203506 23.03548386 70.33203506 23.00393677 71.24862671 C22.78474943 77.57752068 22.55587096 83.90601526 22.32177734 90.234375 C22.23604191 92.58487455 22.15264152 94.93546064 22.07177734 97.28613281 C21.59530036 111.08631811 20.88205876 124.73934099 19.06640625 138.43359375 C10.56745834 141.78542539 10.56745834 141.78542539 6.4453125 142.015625 C5.65447266 142.06009766 4.86363281 142.10457031 4.04882812 142.15039062 C2.8509668 142.19776367 2.8509668 142.19776367 1.62890625 142.24609375 C0.83419922 142.29701172 0.03949219 142.34792969 -0.77929688 142.40039062 C-7.05662985 142.70174347 -13.52173731 142.48014708 -19.03260803 139.17453003 C-20.93359375 137.43359375 -20.93359375 137.43359375 -21.40951538 135.34690857 C-21.39122177 134.10675743 -21.39122177 134.10675743 -21.37255859 132.84155273 C-21.36688873 131.85743912 -21.36121887 130.8733255 -21.3553772 129.85939026 C-21.31288345 128.19262489 -21.31288345 128.19262489 -21.26953125 126.4921875 C-21.24601089 124.68723061 -21.24601089 124.68723061 -21.22201538 122.84580994 C-21.17045503 119.22292683 -21.08652472 115.60131444 -20.9962616 111.9792099 C-20.9292582 109.25748057 -20.86788922 106.53566007 -20.80725098 103.81378174 C-20.51074934 90.68896168 -20.15007808 77.56648603 -19.76171875 64.4440918 C-19.58900102 58.59623034 -19.42876947 52.74809363 -19.27131081 46.89980412 C-19.1471675 42.36237193 -19.01471269 37.82521043 -18.87989426 33.28808403 C-18.81709482 31.12921085 -18.75730875 28.97024776 -18.70064163 26.81120491 C-18.62118403 23.81659344 -18.53008314 20.82255298 -18.43603516 17.82836914 C-18.41517349 16.94591019 -18.39431183 16.06345123 -18.37281799 15.1542511 C-18.10053311 7.2144454 -18.10053311 7.2144454 -15.93359375 3.43359375 C-10.64800785 0.35633162 -6.02376579 -0.02233195 0 0 Z " fill="#030303" transform="translate(195.93359375,182.56640625)"/>
</svg>
