<?xml version="1.0" encoding="UTF-8"?>
<svg version="1.1" xmlns="http://www.w3.org/2000/svg" width="512" height="512">
<path d="M0 0 C3.45925931 3.81485183 5.35692178 7.75684074 7.125 12.53125 C7.41793945 13.30351929 7.71087891 14.07578857 8.01269531 14.87145996 C12.32024827 26.35068932 16.29682141 37.95286791 20.31726837 49.53484344 C22.18696392 54.91652536 24.06542243 60.29516124 25.9429512 65.67411423 C26.41308195 67.0210255 26.88311123 68.3679722 27.35303879 69.71495438 C31.67386723 82.09866203 36.06222048 94.45733273 40.49645996 106.8008728 C44.39372363 117.65094307 48.23879521 128.51787824 52.0390625 139.40234375 C52.91193074 141.89860581 53.78481484 144.39486233 54.65771484 146.89111328 C56.35940727 151.75849686 58.0538437 156.62833028 59.74462891 161.49951172 C60.52219545 163.72502767 61.3000151 165.95045521 62.078125 168.17578125 C62.60679672 169.70863014 62.60679672 169.70863014 63.14614868 171.27244568 C64.73745065 175.80601449 66.25343564 180.00893207 69 184 C69.41958984 182.63633301 69.41958984 182.63633301 69.84765625 181.24511719 C70.03695206 180.62991211 70.22624786 180.01470703 70.42127991 179.38085938 C70.85947567 177.9567101 71.29765655 176.53255625 71.73582458 175.10839844 C73.03325838 170.89149637 74.33099065 166.67468645 75.62915039 162.45800781 C78.32565444 153.69819059 81.02017225 144.9377828 83.7056427 136.17457581 C92.38768027 107.84547578 101.18411203 79.55398309 110.07437992 51.28963661 C110.72384835 49.22437757 111.37273907 47.15893767 112.02156067 45.09347534 C112.85391117 42.44403839 113.68899135 39.79548399 114.52592468 37.14749146 C116.41834997 31.14636172 118.26637073 25.13775888 119.99951172 19.08837891 C120.3078746 18.0254512 120.61623749 16.9625235 120.9339447 15.86738586 C121.49605967 13.91663972 122.04517068 11.96207364 122.57789612 10.00309753 C124.53965744 3.22616539 127.23683802 -0.15789201 133.1875 -4.125 C167.48907443 -22.51859788 230.76653317 -14.67367114 268 -9 C269.19181885 -8.82597656 269.19181885 -8.82597656 270.40771484 -8.6484375 C279.63594278 -7.25763338 287.6045798 -5.20403654 294 2 C294.88849981 4.66549943 295.16624246 6.40515707 295.27642822 9.15603638 C295.31263527 10.00627475 295.34884232 10.85651312 295.38614655 11.73251629 C295.42146233 12.66657205 295.45677811 13.6006278 295.49316406 14.56298828 C295.53415977 15.55487309 295.57515549 16.54675791 295.61739349 17.56869984 C295.75420129 20.90241883 295.88483451 24.23635243 296.015625 27.5703125 C296.11206245 29.94488731 296.20893516 32.31944447 296.30621338 34.69398499 C296.51513005 39.81033426 296.72153271 44.92677645 296.92602539 50.04330444 C297.25218726 58.20266503 297.58514175 66.3617409 297.91992188 74.52075195 C297.94806787 75.2067474 297.97621387 75.89274286 298.00521278 76.59952605 C298.1485448 80.09205558 298.29200129 83.58457999 298.43554688 87.07710075 C298.55203323 89.91164305 298.66831679 92.74619356 298.78442383 95.58075142 C299.91988041 123.29829489 301.1150746 151.01300952 302.34634399 178.72647095 C302.50037956 182.19604946 302.65393804 185.66564879 302.80737305 189.13525391 C303.91061127 214.07002722 305.04017175 239.00339667 306.21557617 263.9348774 C306.39006981 267.64055335 306.56382439 271.34626317 306.73730469 275.05198669 C306.82240547 276.86935947 306.82240547 276.86935947 306.90922546 278.72344685 C307.02279149 281.14885474 307.13632723 283.57426405 307.24983215 285.9996748 C307.52087561 291.78100142 307.79436508 297.56219004 308.07397461 303.34310913 C309.15076717 325.61784991 310.14740484 347.89499431 310.74188995 370.18861008 C310.79883631 372.26698598 310.86080567 374.34523106 310.92809296 376.42329788 C311.01870716 379.28253143 311.08894845 382.14153602 311.15332031 385.00146484 C311.18352013 385.84360912 311.21371994 386.6857534 311.2448349 387.55341721 C311.32299633 392.21336207 311.06640945 395.22966352 308 399 C303.92526556 401.3131954 299.44289013 402.55961742 295 404 C293.88391357 404.36222656 292.76782715 404.72445313 291.61791992 405.09765625 C277.87686218 408.91305519 264.12153496 408.56956802 249.95159912 408.44952393 C247.26789082 408.43350251 244.5845306 408.44361368 241.90081215 408.45325756 C204.62511692 408.56017935 204.62511692 408.56017935 194 401 C190.33704948 395.73775946 189.35477352 390.52327044 189.10810852 384.24241638 C189.06047731 383.39678558 189.0128461 382.55115478 188.96377152 381.6798988 C188.80957752 378.86590549 188.68080362 376.05134492 188.55200195 373.23608398 C188.44619782 371.2099259 188.33881618 369.18384967 188.22998047 367.15785217 C187.93942825 361.66648446 187.67084503 356.17423663 187.4061358 350.68157077 C187.1246156 344.91970031 186.82260863 339.15890446 186.52275085 333.39796448 C185.95737132 322.47679778 185.40999372 311.55480741 184.86925715 300.6323958 C184.19561655 287.04256309 183.49937033 273.45390434 182.80273438 259.86523438 C182.09137582 245.97951827 181.38205453 232.09372215 180.68782043 218.20713806 C180.58052944 216.06645133 180.47322484 213.92576528 180.36590576 211.78507996 C180.16861931 207.84924724 179.97286805 203.91334258 179.77806091 199.97738647 C179.27909803 189.97730943 178.70956748 179.98754253 178 170 C166.32111446 207.19645243 155.20462766 244.5673877 144.05654526 281.92557144 C143.43837595 283.99706469 142.82010342 286.0685271 142.20181274 288.13998413 C137.82686153 302.79814851 133.4571737 317.45786417 129.09905338 332.12104225 C126.97229841 339.27630457 124.84307522 346.43082975 122.71233273 353.58490562 C121.16561878 358.77880279 119.62219122 363.97366179 118.08116627 369.16924953 C117.12363704 372.39472822 116.16301881 375.61928075 115.20153999 378.84358406 C114.75380853 380.34735784 114.30736498 381.85151576 113.86228752 383.35607719 C113.2519387 385.41867689 112.63703415 387.47986508 112.02099609 389.54077148 C111.67716888 390.69770004 111.33334167 391.8546286 110.97909546 393.0466156 C108.8291733 399.53173053 108.8291733 399.53173053 105.49609375 401.4140625 C104.48675781 401.81367188 103.47742188 402.21328125 102.4375 402.625 C101.44621094 403.02976562 100.45492188 403.43453125 99.43359375 403.8515625 C90.52069255 406.83266938 82.39218308 407.28691722 73 407.1875 C71.07039429 407.17456909 71.07039429 407.17456909 69.10180664 407.16137695 C37.87220319 406.86851957 37.87220319 406.86851957 29 403 C26.05452958 399.77142219 24.93671672 396.35180445 23.6171875 392.2265625 C23.28933762 391.20977921 23.28933762 391.20977921 22.9548645 390.17245483 C22.48906107 388.72274091 22.0269871 387.27182419 21.56835938 385.81982422 C20.9049284 383.71973813 20.2311171 381.62327338 19.5546875 379.52734375 C16.09754295 368.75176448 12.85573506 357.91170879 9.614151 347.06974792 C5.28178943 332.58034422 0.88695037 318.1100983 -3.51652527 303.64216995 C-4.2001259 301.39601417 -4.88346007 299.14977743 -5.56677246 296.90353394 C-11.51328222 277.35897538 -17.50924939 257.83106533 -23.60339355 238.3319397 C-28.17978743 223.68824681 -32.6331935 209.01300062 -37.01074219 194.30859375 C-39.63618907 185.52773092 -42.32196629 176.76494124 -45 168 C-45.87256298 175.65793361 -46.30556502 183.29669876 -46.61328125 190.99609375 C-46.66756287 192.3136969 -46.72184448 193.63130005 -46.777771 194.98883057 C-46.92900406 198.68681162 -47.07510639 202.38498055 -47.21992874 206.08321762 C-47.31299898 208.45019008 -47.40766867 210.8170942 -47.50265503 213.18399048 C-48.46745526 237.32725493 -49.24364971 261.47515358 -49.95022225 285.62712359 C-50.03729874 288.59911831 -50.12498778 291.57109483 -50.21266323 294.54307193 C-50.60914735 307.98985294 -51.00275636 321.43667735 -51.37171566 334.88424528 C-51.52903619 340.60621775 -51.69229413 346.32800213 -51.8598088 352.04968512 C-51.95760277 355.40048575 -52.05126319 358.75127847 -52.13909149 362.10236359 C-52.23593979 365.78816166 -52.34345235 369.47350736 -52.45336914 373.15893555 C-52.47887502 374.23227866 -52.50438089 375.30562178 -52.53065968 376.41149044 C-53.00443643 391.25610009 -53.00443643 391.25610009 -57 396.75 C-67.97709392 404.98282044 -79.65489989 406.20239218 -93 407.125 C-94.19189941 407.20919189 -95.38379883 407.29338379 -96.61181641 407.38012695 C-106.10144675 408.01272625 -115.49618434 408.27814051 -125 408 C-125.85319824 407.98066406 -126.70639648 407.96132813 -127.58544922 407.94140625 C-159.73689141 407.15736534 -159.73689141 407.15736534 -170.7109375 396.30859375 C-174.29765539 389.88510807 -173.00584512 381.14763314 -172.73046875 374.0546875 C-172.67002884 372.29589516 -172.67002884 372.29589516 -172.60836792 370.50157166 C-172.49723694 367.29760037 -172.38057599 364.09388757 -172.26155472 360.89020157 C-172.1358037 357.46822316 -172.01718444 354.04599835 -171.89819336 350.6237793 C-171.74923768 346.34829779 -171.59984227 342.0728355 -171.44758606 337.79747009 C-171.11557635 328.45811164 -170.80872851 319.11826799 -170.5234375 309.77734375 C-169.87094572 288.50936794 -169.19714373 267.24402293 -168.3125 245.984375 C-168.28239208 245.26073698 -168.25228416 244.53709896 -168.22126389 243.79153252 C-167.97110184 237.78926643 -167.71899184 231.78708195 -167.4668045 225.78490067 C-166.14141315 194.19457893 -165.12360764 162.59726218 -164.15307331 130.99427414 C-163.99944768 125.99226838 -163.84555018 120.99027106 -163.69140625 115.98828125 C-163.66165144 115.02176132 -163.63189663 114.05524139 -163.60124016 113.05943298 C-163.02601075 94.41745379 -162.37330718 75.77935931 -161.62207031 57.14355469 C-161.24273982 47.60633637 -160.94424989 38.0795684 -160.83203125 28.53515625 C-160.80568976 26.72794321 -160.7791649 24.92073283 -160.75244141 23.11352539 C-160.70480759 19.83475676 -160.68827584 16.55811473 -160.69287109 13.27905273 C-160.67528456 11.85268743 -160.65663749 10.42633464 -160.63671875 9 C-160.63373779 7.783125 -160.63075684 6.56625 -160.62768555 5.3125 C-159.6873522 0.35005628 -157.20366877 -2.43202616 -153.05175781 -5.38623047 C-148.36734577 -7.5552147 -143.80287346 -9.07094259 -138.75 -10.125 C-137.96898926 -10.28967773 -137.18797852 -10.45435547 -136.38330078 -10.62402344 C-103.82972927 -17.16712935 -27.22595795 -23.03734903 0 0 Z " fill="#010101" transform="translate(187,52)"/>
</svg>
